<?xml version="1.0" standalone="no"?>
<!DOCTYPE svg PUBLIC "-//W3C//DTD SVG 20010904//EN"
 "http://www.w3.org/TR/2001/REC-SVG-20010904/DTD/svg10.dtd">
<svg version="1.0" xmlns="http://www.w3.org/2000/svg"
 width="1280.000000pt" height="640.000000pt" viewBox="0 0 1280.000000 640.000000"
 preserveAspectRatio="xMidYMid meet">
<metadata>
Created by potrace 1.15, written by Peter Selinger 2001-2017
</metadata>
<g transform="translate(0.000000,640.000000) scale(0.100000,-0.100000)"
fill="#000000" stroke="none">
<path d="M5112 6230 c-185 -50 -339 -162 -437 -319 -23 -38 -25 -46 -13 -55 8
-6 56 -46 106 -90 l92 -78 -8 -42 c-13 -76 -5 -187 18 -249 50 -132 174 -246
311 -288 133 -41 313 -15 421 59 54 37 174 152 180 172 4 11 18 4 59 -30 97
-81 86 -79 114 -19 40 88 56 166 56 274 0 187 -63 337 -196 470 -93 93 -161
135 -282 178 -78 27 -103 31 -218 34 -105 2 -144 -1 -203 -17z"/>
<path d="M4340 5713 c-14 -2 -146 -35 -295 -73 -148 -38 -486 -123 -750 -190
-520 -132 -562 -147 -636 -227 -22 -25 -53 -70 -67 -101 -23 -49 -27 -70 -27
-147 0 -89 1 -93 97 -355 53 -146 149 -409 213 -585 l115 -319 -29 -31 c-15
-16 -180 -192 -366 -390 -371 -395 -385 -414 -385 -520 0 -198 215 -329 401
-243 67 31 24 -13 574 571 511 542 510 541 510 671 -1 80 -2 84 -148 457 -81
207 -147 380 -147 385 0 9 858 229 865 222 3 -2 -13 -107 -35 -231 -47 -266
-49 -325 -17 -382 25 -45 564 -512 632 -548 57 -30 137 -29 193 3 87 49 118
159 69 245 -19 34 -211 208 -440 399 l-38 32 30 184 c17 102 53 327 81 500 57
350 57 370 2 473 -72 135 -255 226 -402 200z"/>
<path d="M7815 5555 c-106 -18 -176 -40 -256 -81 -132 -70 -247 -190 -315
-330 -31 -64 -209 -502 -481 -1177 -53 -131 -101 -240 -107 -241 -141 -32
-264 -103 -377 -215 -136 -137 -199 -271 -219 -469 -7 -70 -10 -399 -8 -957
l3 -850 268 -3 267 -2 0 -298 c0 -330 7 -388 60 -491 39 -78 89 -134 164 -183
114 -73 264 -102 396 -74 205 43 352 180 401 376 10 41 14 134 14 362 l0 308
1803 0 1802 0 0 -297 c0 -217 4 -316 14 -364 44 -204 195 -346 413 -386 274
-51 543 124 593 386 5 30 10 190 10 357 l0 304 270 0 271 0 -3 943 -3 942 -23
75 c-46 150 -131 277 -249 375 -72 60 -223 139 -285 150 -21 4 -41 12 -46 19
-5 6 -125 296 -267 645 -141 348 -273 670 -292 715 -106 244 -270 383 -533
453 -60 16 -181 17 -1635 19 -1262 2 -1586 0 -1650 -11z m3193 -534 c57 -26
100 -69 133 -133 27 -52 450 -1140 446 -1145 -2 -2 -976 -2 -2163 -1 l-2160 3
83 215 c46 118 145 373 219 565 74 193 146 366 158 385 50 75 104 115 179 130
23 4 719 7 1547 6 l1505 -1 53 -24z m-3758 -1843 c114 -34 230 -130 281 -234
133 -270 -37 -590 -339 -636 -243 -38 -472 128 -514 372 -41 240 137 478 382
510 63 8 139 3 190 -12z m4605 0 c262 -66 404 -379 284 -624 -120 -243 -440
-327 -664 -174 -161 110 -233 313 -176 498 70 232 311 362 556 300z"/>
<path d="M930 4734 c-73 -14 -131 -36 -140 -54 -30 -56 11 -110 84 -110 184
-1 369 -76 498 -203 30 -30 261 -331 513 -670 l460 -617 62 125 63 124 -392
528 c-215 291 -414 554 -441 585 -96 113 -268 218 -435 268 -72 21 -220 34
-272 24z"/>
<path d="M876 3840 c-251 -40 -503 -179 -650 -359 -245 -299 -292 -682 -126
-1026 236 -490 862 -702 1368 -465 392 184 621 576 574 981 -58 492 -469 858
-982 874 -69 2 -152 0 -184 -5z m329 -334 c216 -57 406 -230 476 -436 30 -89
37 -251 15 -340 -55 -220 -221 -402 -435 -476 -109 -38 -216 -50 -323 -35
-285 38 -514 233 -582 496 -21 77 -21 233 -1 310 53 204 223 388 427 461 125
45 295 53 423 20z"/>
<path d="M4470 3723 c-70 -36 -89 -132 -35 -185 13 -13 96 -57 184 -97 154
-70 186 -91 210 -138 7 -15 11 -131 12 -360 1 -186 4 -421 8 -523 l6 -185 123
-13 c68 -8 125 -12 128 -10 2 3 -1 252 -6 556 -9 521 -11 554 -31 607 -46 125
-113 180 -339 283 -182 83 -210 90 -260 65z"/>
<path d="M3236 2668 c-265 -525 -335 -672 -325 -679 18 -12 73 -26 129 -34 73
-10 173 17 412 114 640 258 1232 501 1237 508 4 4 4 136 1 293 l-5 285 -45 8
c-25 4 -265 43 -535 87 -269 44 -499 82 -510 84 -18 4 -62 -79 -359 -666z"/>
<path d="M5238 2896 l3 -144 42 10 c71 16 218 13 278 -7 101 -34 209 -107 288
-197 41 -47 77 -60 119 -42 52 21 52 54 3 149 -101 198 -290 308 -617 359 -56
9 -105 16 -110 16 -5 0 -8 -65 -6 -144z"/>
<path d="M4605 2095 c-518 -95 -883 -563 -827 -1061 44 -395 328 -723 725
-838 285 -83 597 -39 854 119 108 66 264 225 324 330 98 170 134 300 133 490
0 102 -5 149 -23 220 -98 385 -412 670 -815 741 -98 17 -275 17 -371 -1z m333
-320 c242 -50 426 -206 510 -433 34 -92 42 -252 17 -355 -78 -325 -410 -549
-752 -507 -288 36 -527 242 -589 506 -22 96 -15 256 15 344 112 324 458 517
799 445z"/>
</g>
</svg>
